<svg width="120" height="40" viewBox="0 0 120 40" fill="none" xmlns="http://www.w3.org/2000/svg">
  <!-- Cactus -->
  <path d="M10 30 L10 15 L8 15 L8 12 L12 12 L12 15 L10 15 L10 8 C10 6 12 6 12 8 L12 30 Z" fill="#00C26E"/>
  <path d="M14 30 L14 20 L16 20 L16 17 L18 17 L18 20 L16 20 L16 8 C16 6 18 6 18 8 L18 30 Z" fill="#00C26E"/>
  <circle cx="11" cy="10" r="1" fill="#00C26E"/>
  <circle cx="17" cy="12" r="1" fill="#00C26E"/>
  <circle cx="13" cy="14" r="0.5" fill="#00C26E"/>

  <!-- Text "CACTUS" -->
  <text x="25" y="25" font-family="Arial, sans-serif" font-size="16" font-weight="bold" fill="#00C26E">CACTUS</text>
  <text x="25" y="35" font-family="Arial, sans-serif" font-size="8" fill="#B0B0B0">MENTOR</text>
</svg>


